<?xml version="1.0" standalone="no"?>
<!DOCTYPE svg PUBLIC "-//W3C//DTD SVG 20010904//EN"
 "http://www.w3.org/TR/2001/REC-SVG-20010904/DTD/svg10.dtd">
<svg version="1.0" xmlns="http://www.w3.org/2000/svg"
 width="512.000000pt" height="512.000000pt" viewBox="0 0 512.000000 512.000000"
 preserveAspectRatio="xMidYMid meet">
<metadata>
Created by potrace 1.11, written by Peter Selinger 2001-2013
</metadata>
<g transform="translate(0.000000,512.000000) scale(0.100000,-0.100000)"
fill="#000000" stroke="none">
<path d="M0 2560 l0 -2560 2560 0 2560 0 0 2560 0 2560 -2560 0 -2560 0 0
-2560z m3445 1906 c128 -76 235 -226 310 -438 15 -43 33 -78 39 -78 6 0 47 7
91 15 44 8 134 14 200 15 196 0 304 -36 388 -130 119 -132 99 -319 -58 -555
-30 -45 -75 -105 -100 -133 l-47 -52 60 -72 c232 -285 282 -522 143 -681 -38
-43 -130 -91 -206 -108 -30 -7 -55 -16 -55 -21 0 -4 -16 -26 -36 -48 -76 -84
-198 -86 -280 -4 -24 24 -44 50 -44 59 0 9 -12 20 -26 25 -33 13 -44 13 -44
-1 0 -24 -81 -212 -120 -280 -57 -96 -155 -199 -224 -232 l-56 -27 30 -49 c67
-109 124 -258 145 -383 5 -35 8 -38 40 -38 l34 0 3 -132 3 -132 29 -7 c64 -18
114 -97 101 -162 -10 -46 -49 -94 -87 -106 -18 -6 -247 -36 -508 -67 -648 -77
-678 -78 -1330 -1 -351 41 -494 62 -519 75 -70 35 -98 112 -66 183 18 39 67
79 99 79 14 0 16 17 16 135 l0 135 38 0 38 0 14 67 c53 272 218 527 438 677
l72 50 0 403 0 403 135 0 135 0 0 -351 c0 -316 2 -351 16 -345 9 3 22 6 30 6
7 0 23 18 34 39 26 51 82 97 136 110 37 10 44 15 44 36 0 24 3 25 58 25 51 1
209 24 217 32 2 2 -5 44 -15 93 -10 50 -24 132 -30 183 l-13 92 -108 86 -109
85 0 167 1 167 92 73 c51 40 99 78 108 85 11 8 21 50 33 135 10 68 24 149 31
180 8 31 10 61 6 65 -5 5 -67 16 -140 24 l-131 17 0 63 0 63 68 0 c37 -1 103
-7 147 -15 106 -19 102 -20 115 20 11 32 9 38 -14 66 -47 56 -56 142 -21 210
35 66 132 118 197 104 25 -6 36 -2 67 27 90 86 147 109 257 105 67 -3 89 -8
129 -31z m-1205 -561 l0 -275 -667 2 -668 3 -3 260 c-1 143 0 265 3 272 3 10
142 13 670 13 l665 0 0 -275z m-1060 -665 l0 -141 -137 3 -138 3 -3 138 -3
137 141 0 140 0 0 -140z m530 0 l0 -141 -137 3 -138 3 -3 124 c-1 69 0 131 2
138 4 10 39 13 141 13 l135 0 0 -140z m530 0 l0 -140 -135 0 -135 0 0 140 0
140 135 0 135 0 0 -140z m-1060 -530 l0 -140 -140 0 -140 0 0 133 c0 74 3 137
7 140 3 4 66 7 140 7 l133 0 0 -140z m530 0 l0 -140 -135 0 -135 0 0 140 0
140 135 0 135 0 0 -140z m-532 -532 l3 -138 -136 0 -135 0 0 140 0 141 133 -3
132 -3 3 -137z m532 2 l0 -140 -135 0 -135 0 0 140 0 140 135 0 135 0 0 -140z"/>
<path d="M3249 4357 c-31 -12 -109 -63 -109 -73 0 -2 6 -27 14 -57 21 -79 6
-138 -48 -192 -29 -29 -57 -45 -89 -54 -36 -9 -50 -18 -57 -37 -6 -14 -10 -27
-10 -29 0 -2 44 -18 98 -36 53 -17 132 -47 175 -65 l78 -32 92 37 c51 21 130
50 175 65 95 32 91 18 37 152 -101 245 -234 365 -356 321z"/>
<path d="M4015 3844 c-96 -13 -181 -27 -186 -30 -3 -2 4 -56 17 -121 13 -65
26 -147 30 -183 l6 -65 58 -42 c31 -23 96 -77 144 -119 73 -63 89 -74 102 -63
37 30 141 181 177 257 48 99 61 197 33 250 -21 40 -69 76 -128 96 -47 15 -198
28 -253 20z"/>
<path d="M2910 3777 c0 -2 -9 -50 -21 -106 -11 -56 -19 -106 -17 -111 2 -4 32
9 68 31 36 22 91 53 122 69 31 16 59 33 62 38 3 5 -38 24 -92 42 -53 18 -103
35 -109 38 -7 2 -13 2 -13 -1z"/>
<path d="M3572 3743 c-56 -20 -99 -40 -95 -44 4 -4 53 -33 108 -65 55 -31 111
-64 124 -73 l24 -15 -7 49 c-12 79 -37 185 -44 184 -4 0 -53 -17 -110 -36z"/>
<path d="M3185 3571 c-115 -61 -275 -157 -316 -190 -24 -19 -24 -21 -27 -228
-2 -114 -1 -232 3 -260 l6 -53 122 -75 c67 -42 168 -99 225 -128 l102 -52 103
52 c162 82 344 199 351 225 9 37 7 464 -3 491 -11 29 -158 126 -327 214 -66
35 -123 63 -125 63 -2 0 -53 -27 -114 -59z"/>
<path d="M2615 3190 c-44 -38 -80 -74 -80 -81 0 -7 36 -44 80 -82 l80 -69 3
76 c2 42 2 109 0 150 l-3 74 -80 -68z"/>
<path d="M3900 3111 c0 -176 -7 -172 105 -67 l70 66 -40 36 c-22 20 -61 54
-87 76 l-48 40 0 -151z"/>
<path d="M4105 2949 c-39 -34 -105 -88 -147 -122 -56 -43 -78 -67 -78 -83 0
-29 -47 -304 -55 -326 -12 -32 24 -20 57 18 80 91 199 96 284 10 22 -22 43
-48 46 -56 4 -13 12 -13 60 3 206 65 181 283 -67 580 l-31 36 -69 -60z"/>
<path d="M2875 2618 c19 -118 37 -178 53 -177 26 0 191 63 192 72 1 8 -233
147 -246 147 -3 0 -3 -19 1 -42z"/>
<path d="M3685 2640 c-16 -11 -72 -44 -123 -72 -87 -49 -92 -53 -70 -64 42
-21 188 -67 194 -61 7 7 43 172 44 200 0 22 -8 21 -45 -3z"/>
<path d="M3190 2389 c-52 -21 -126 -49 -165 -61 -38 -12 -72 -23 -74 -25 -6
-4 51 -147 87 -216 29 -56 49 -78 116 -131 44 -35 90 -73 100 -85 24 -27 74
-28 125 -1 56 28 135 122 185 220 43 85 92 208 85 213 -2 2 -42 16 -89 31 -47
16 -122 43 -168 62 -45 19 -88 34 -95 33 -6 0 -55 -18 -107 -40z"/>
<path d="M2750 2259 c-25 -5 -55 -12 -66 -14 l-22 -5 19 -38 c18 -37 24 -40
101 -61 44 -12 82 -20 84 -18 7 7 -51 147 -61 146 -5 -1 -30 -5 -55 -10z"/>
</g>
</svg>
