<?xml version="1.0" standalone="no"?>
<!DOCTYPE svg PUBLIC "-//W3C//DTD SVG 20010904//EN"
 "http://www.w3.org/TR/2001/REC-SVG-20010904/DTD/svg10.dtd">
<svg version="1.0" xmlns="http://www.w3.org/2000/svg"
 width="512.000000pt" height="512.000000pt" viewBox="0 0 512.000000 512.000000"
 preserveAspectRatio="xMidYMid meet">
<metadata>
Created by potrace 1.11, written by Peter Selinger 2001-2013
</metadata>
<g transform="translate(0.000000,512.000000) scale(0.100000,-0.100000)"
fill="#000000" stroke="none">
<path d="M1580 5105 c-90 -20 -172 -45 -230 -73 -121 -57 -248 -170 -308 -274
-14 -26 -35 -49 -45 -52 -13 -3 -17 -10 -13 -23 3 -11 -3 -45 -13 -76 -52
-151 -60 -344 -20 -502 69 -272 245 -486 477 -580 103 -42 177 -54 319 -52
l132 3 63 -136 c35 -74 116 -240 181 -368 65 -129 117 -235 115 -236 -2 -2
-28 -16 -58 -32 -72 -38 -168 -135 -203 -206 -42 -88 -56 -152 -52 -253 3
-103 9 -138 36 -215 10 -30 19 -59 19 -65 0 -12 -82 -66 -328 -216 l-144 -88
-45 43 c-24 23 -75 61 -113 84 -178 106 -378 116 -565 28 -177 -84 -311 -233
-377 -422 -28 -80 -31 -101 -31 -209 -1 -104 3 -130 25 -196 84 -241 254 -391
483 -424 49 -7 161 -7 195 -1 187 38 316 108 408 221 64 79 104 178 128 315 8
45 8 201 1 226 -5 15 10 30 76 74 45 30 159 107 252 171 247 169 215 153 256
123 80 -60 229 -114 316 -114 l28 0 0 -138 c1 -152 10 -271 28 -378 l13 -72
-54 -26 c-65 -32 -163 -123 -195 -180 -103 -185 -94 -398 23 -574 139 -208
398 -268 646 -151 121 57 249 211 270 324 3 16 7 32 9 35 3 4 7 38 10 76 15
181 -77 393 -211 485 -46 31 -145 64 -169 56 -19 -8 -40 10 -41 35 0 23 -13
143 -19 182 -2 12 -6 44 -10 71 -12 95 -16 120 -31 205 -7 47 -14 90 -14 97 0
7 24 28 53 46 109 70 191 177 240 314 29 79 35 109 43 213 4 46 12 84 23 99
15 21 103 78 335 215 43 25 80 45 80 44 7 -13 106 -127 125 -143 119 -99 246
-147 391 -147 148 0 249 30 372 108 148 95 236 217 275 384 42 180 -34 441
-166 570 -151 147 -387 219 -611 185 -72 -11 -190 -54 -255 -93 -165 -100
-250 -257 -244 -451 l2 -76 -79 -49 c-43 -27 -137 -87 -208 -134 l-130 -85
-25 34 c-71 93 -178 167 -276 190 -28 6 -86 11 -130 11 l-80 -1 -69 157 c-59
132 -192 408 -250 517 -8 16 -12 33 -8 36 4 4 26 23 50 43 213 176 294 497
218 856 -14 63 -51 162 -89 235 -102 196 -248 323 -443 385 -82 26 -275 34
-364 15z m355 -89 c342 -116 521 -392 511 -786 -6 -216 -72 -386 -201 -516
-107 -108 -219 -160 -369 -171 -46 -3 -88 -12 -97 -19 -9 -8 -18 -12 -20 -10
-2 2 -29 7 -59 10 -30 3 -66 8 -80 12 -65 16 -149 44 -189 62 l-44 20 120 -5
c88 -4 122 -3 128 6 4 7 5 14 3 17 -2 2 -45 6 -94 9 -155 8 -228 17 -255 30
-71 37 -181 161 -233 263 -31 60 -32 72 -8 68 20 -4 214 -15 395 -21 102 -4
127 -3 127 8 0 8 -6 14 -12 14 -7 0 -69 4 -138 8 -174 11 -223 13 -321 14
l-87 1 -12 48 c-7 26 -14 54 -16 62 -2 8 -6 30 -9 48 l-6 32 300 0 c285 0 330
4 306 28 -4 4 -142 7 -307 7 l-300 0 5 90 c7 94 31 193 68 276 l23 49 230 1
c127 1 251 2 276 4 78 3 225 17 229 20 18 19 -47 22 -360 17 l-352 -5 46 60
c45 59 112 120 127 116 4 -1 90 -5 191 -8 101 -4 189 -8 196 -10 17 -6 37 21
23 30 -7 4 -94 10 -193 12 -100 3 -183 6 -185 8 -6 6 96 65 148 85 94 38 167
49 295 46 99 -3 134 -8 200 -30z m260 -1538 c16 -35 43 -94 60 -133 76 -165
140 -306 175 -385 21 -47 59 -130 85 -184 53 -111 53 -142 3 -179 -45 -34
-140 -17 -154 27 -3 11 -62 134 -130 271 -113 230 -157 316 -264 511 l-39 72
61 12 c34 6 82 20 107 30 25 11 51 19 57 19 6 1 24 -27 39 -61z m2038 -27
c268 -62 448 -281 462 -561 8 -154 -39 -274 -150 -386 -107 -107 -251 -171
-406 -177 -63 -3 -207 18 -222 32 -4 4 32 8 80 9 81 2 180 9 228 16 11 2 20 9
20 17 0 8 -6 13 -14 11 -8 -2 -103 -6 -211 -9 l-197 -6 -44 31 c-24 16 -60 46
-78 66 l-35 36 202 0 c173 0 202 2 202 15 0 13 -30 15 -214 15 -252 0 -267 5
-190 64 l47 36 149 0 c115 0 149 3 145 13 -2 8 -36 12 -118 13 -63 1 -120 2
-127 3 -8 1 6 24 33 53 25 28 44 57 41 65 -6 14 7 15 152 14 66 0 82 3 82 14
0 12 -22 15 -125 15 -90 0 -125 3 -125 12 0 24 -51 85 -88 106 -45 25 -109 35
-120 17 -4 -6 -29 -25 -56 -40 l-49 -29 6 68 c3 38 7 70 9 71 2 1 111 5 243 9
204 5 273 8 318 15 4 0 7 8 7 16 0 14 -13 15 -92 9 -184 -12 -458 -12 -458 1
0 7 14 40 32 74 30 59 33 61 72 62 23 1 55 2 71 4 17 1 75 5 130 9 132 9 218
17 228 23 4 2 7 9 7 15 0 9 -102 6 -250 -7 -218 -20 -218 -20 -120 57 63 49
190 105 263 114 23 4 43 7 45 9 7 7 172 -4 215 -14z m-521 -537 c15 -11 36
-39 48 -62 l22 -42 -33 -27 c-106 -90 -184 -147 -354 -255 -104 -67 -207 -135
-227 -151 l-38 -29 0 24 c0 30 -22 110 -48 175 l-21 51 160 86 c161 87 413
239 424 256 7 11 33 1 67 -26z m-1013 -125 c169 -37 305 -182 358 -380 26 -97
23 -264 -6 -359 -68 -222 -206 -356 -411 -397 -29 -6 -166 -4 -195 2 -50 11
-155 48 -155 55 0 7 75 12 224 14 69 1 101 5 104 14 5 17 -122 20 -268 7 -119
-11 -115 -12 -179 44 -100 87 -110 80 125 80 114 0 209 3 211 5 3 3 2 10 -2
16 -5 7 -73 10 -221 9 -118 -1 -217 0 -219 2 -8 9 -63 124 -60 127 2 2 29 5
62 8 154 11 185 14 195 20 14 9 -10 23 -31 19 -9 -1 -66 -6 -127 -10 l-111 -7
-8 38 c-8 43 -8 164 -1 172 3 2 144 4 315 3 217 -1 311 1 316 9 4 6 5 14 2 16
-3 3 -145 5 -316 5 l-311 0 6 27 c4 15 18 53 32 85 l25 58 194 -4 c180 -3 227
2 194 23 -7 4 -93 5 -192 4 l-180 -4 22 33 c37 52 161 177 171 171 4 -3 17
-23 28 -44 39 -76 115 -134 175 -134 55 0 117 42 137 94 16 40 17 99 3 113
-18 19 -45 74 -39 80 7 7 71 0 133 -14z m-668 -906 c13 -21 38 -57 56 -80 l34
-41 -133 -89 c-73 -49 -188 -132 -255 -186 -67 -53 -124 -93 -126 -89 -2 4
-14 39 -26 78 -13 39 -33 89 -46 110 l-23 39 146 75 c140 72 308 176 333 206
15 19 14 19 40 -23z m-911 -87 c97 -11 176 -45 271 -116 65 -48 103 -118 140
-256 28 -106 31 -308 5 -404 -63 -233 -257 -375 -526 -386 -119 -4 -189 10
-279 56 -69 35 -126 81 -96 76 11 -2 47 -7 80 -10 33 -4 80 -9 104 -13 34 -4
43 -3 39 8 -5 15 -102 34 -207 42 -34 2 -63 6 -64 8 -2 2 -18 23 -35 46 -18
23 -44 67 -58 98 -27 58 -56 156 -49 163 2 2 92 5 199 5 123 1 196 6 196 12 0
6 -73 11 -196 11 -107 1 -198 4 -201 8 -10 10 -6 113 7 169 20 82 56 157 77
157 230 4 440 14 447 21 5 5 7 12 3 15 -8 9 -271 8 -370 -1 l-79 -6 30 44 c17
24 47 58 67 75 35 32 37 32 148 33 62 1 168 2 237 3 107 1 125 3 128 17 2 12
-6 18 -26 21 -39 6 -225 2 -329 -7 -46 -4 -83 -4 -83 -1 0 10 131 78 178 93
46 14 167 31 187 27 6 -2 30 -5 55 -8z m1645 -188 c2 -7 6 -56 10 -108 14
-223 31 -389 50 -490 3 -14 7 -40 10 -59 3 -19 8 -38 11 -43 9 -14 -29 -67
-58 -79 -34 -14 -90 -5 -111 19 -19 21 -25 46 -32 142 -6 83 -14 152 -20 190
-3 14 -7 53 -11 88 -3 35 -7 72 -9 83 -8 42 -27 220 -24 223 3 2 149 40 172
45 4 0 9 -5 12 -11z m250 -652 c64 -30 107 -73 150 -150 89 -160 95 -349 17
-502 -98 -190 -356 -293 -560 -225 -56 19 -142 65 -142 75 0 2 33 3 73 0 187
-9 194 -9 177 11 -7 8 -15 13 -19 11 -3 -2 -29 0 -56 5 -28 5 -87 10 -132 10
-81 0 -82 0 -112 35 -36 41 -64 91 -53 97 4 3 25 3 47 2 162 -13 319 -15 310
-6 -6 6 -78 13 -160 17 -128 6 -187 9 -216 13 -9 1 -29 83 -29 115 0 26 1 26
78 27 195 3 554 19 564 26 5 2 8 9 8 15 0 10 -140 8 -503 -8 l-149 -7 6 51 c3
28 12 66 20 86 13 30 18 34 42 30 26 -5 223 -8 288 -5 19 0 26 5 20 10 -5 5
-80 11 -166 13 -87 2 -158 6 -158 11 0 34 112 159 182 203 49 31 55 30 63 -8
11 -47 51 -105 84 -123 42 -21 97 -19 141 6 42 24 75 72 65 97 -3 9 -9 34 -12
54 l-5 38 44 0 c24 0 65 -10 93 -24z"/>
<path d="M1043 4442 c-39 -2 -53 -7 -53 -18 0 -13 20 -14 148 -8 81 3 161 7
177 9 17 2 38 3 48 4 9 1 17 6 17 12 0 10 -175 10 -337 1z"/>
<path d="M1150 3811 c0 -5 8 -12 18 -15 32 -9 287 -21 391 -17 42 2 8 23 -41
26 -208 12 -368 15 -368 6z"/>
<path d="M667 1304 c-1 -1 -42 -5 -91 -9 -109 -9 -114 -9 -122 -18 -3 -3 85
-5 196 -4 152 1 204 5 208 15 2 8 -11 12 -45 13 -26 0 -70 2 -96 3 -26 1 -49
1 -50 0z"/>
<path d="M584 968 c-11 -17 36 -23 221 -25 212 -2 265 2 265 21 0 12 -478 17
-486 4z"/>
</g>
</svg>
